# xmcd
#
# Track frame offsets:
#	150
#	10608
#	33318
#	51678
#	73778
#	96709
#	115046
#	129389
#	148857
#	168093
#
# Disc length: 2416 seconds
#
# Revision: 0
# Processed by: cddbd v1.5.1PL0 Copyright (c) Steve Scherf et al.
# Submitted via: dBpowerAMP V4.0
#
DISCID=8d096e0a
DTITLE=Tony Wintrip - Holdin' Me Back
DYEAR=2000
DGENRE=Country
TTITLE0=Swingin'
TTITLE1=Holdin' Me Back
TTITLE2=Follow My Footsteps
TTITLE3=Until You Came Along
TTITLE4=If You Lie
TTITLE5=Hermit of the Bell Road
TTITLE6=I'll Be Right There
TTITLE7=Cowgirl
TTITLE8=Addicted
TTITLE9=Harbor Town
EXTD=Recorded in 2000 in Aberdeen, Washington.  Produced by Bandroom Recordings.
EXTT0=
EXTT1=
EXTT2=
EXTT3=
EXTT4=
EXTT5=
EXTT6=
EXTT7=
EXTT8=
EXTT9=
PLAYORDER=
